<?xml version="1.0" encoding="utf-8"?>
<!DOCTYPE svg PUBLIC "-//W3C//DTD SVG 1.1//EN" "http://www.w3.org/Graphics/SVG/1.1/DTD/svg11.dtd">
<!-- Creator: CorelDRAW -->
<svg xmlns="http://www.w3.org/2000/svg" xml:space="preserve" width="38pt" height="38pt" version="1.1" style="shape-rendering:geometricPrecision; text-rendering:geometricPrecision; image-rendering:optimizeQuality; fill-rule:evenodd; clip-rule:evenodd"
viewBox="0 0 8267.72 11692.91"
 xmlns:xlink="http://www.w3.org/1999/xlink"
 xmlns:xodm="http://www.corel.com/coreldraw/odm/2003">
 <defs>
  <style type="text/css">
   <![CDATA[
    .fil2 {fill:#067DCE}
    .fil4 {fill:#0D192A}
    .fil3 {fill:#4E5DD7}
    .fil1 {fill:#5549CE}
    .fil5 {fill:#5995EA}
    .fil6 {fill:#7996E9}
    .fil0 {fill:#FEFFFF}
   ]]>
  </style>
 </defs>
  <g id="_2064913083728"  transform="translate(00.000000,0.000000) scale(1.000000,1.00000)">
   <polygon class="fil0" points="-2977.25,12957.57 11244.97,12957.57 11244.97,-1264.65 -2977.25,-1264.65 "/>
   <path class="fil1" d="M5022.75 3659.72c351.8,214.24 662.42,131.37 944.44,-112.48 144.87,74.76 206,118.15 329.25,206.66l107.48 86.36c120.9,113.09 34.63,6.48 180.52,180.61 20.01,23.87 19.54,20.1 40.38,42.03l83.6 111.37c124.91,185.96 205.76,307.57 289.03,542.32 66.54,187.55 112.36,406.48 119.31,615.78 17.79,535.54 -156.46,1006.4 -462.8,1367.8l-179.22 194.56c-27.48,28.83 -58.83,45.01 -99.16,81.45l-330.56 224.08c-327.89,192.1 -253.14,61.03 -585.8,96.58 -139.24,14.88 -261.85,78.31 -347.83,166.06l-13.64 13.96c-187.23,191.96 -181.51,481.45 -292.68,639.39 -59.39,84.37 -167.29,75.28 -282.33,75.17l-1847.3 5.19c-340.05,-1.94 -624.43,173.13 -646.69,468.62 -7.54,100.09 -9.69,284.26 15.82,367.58 123.42,37.83 2311.16,20.12 2630.94,20.72 332.98,0.63 2525.82,38.33 2640.9,-24.03 44.91,-138.16 21.09,-371.37 -66.97,-451.41 -129.65,-117.85 -293.59,-61.82 -478.47,-76.03 -28.1,-11.45 -347.81,-461.69 -390,-519.66 231.4,-82.64 485.33,-308.73 677.43,-475.19 166.54,-144.3 408.83,-476.99 511.06,-657.3 299.82,-528.83 469.81,-1224 353.43,-1916.63 -82.47,-490.85 -300.28,-1041.92 -620.89,-1406.91 -169.27,-192.7 -131.93,-180.73 -353.81,-370.21 -257.33,-219.75 -472.53,-380.08 -807.54,-512.57 -208,-82.26 -67.98,-34.83 -178.67,-111.42 -37.66,-26.06 -38.11,-23.92 -80.39,-59.5 -32.61,-27.44 -56.44,-39.21 -86.12,-63.83 35.37,-23.17 321.64,-486.36 395.17,-604.52 157.97,-253.84 -17.52,-307.7 -161.87,-409.95l-619.61 -407.64c-228.11,-142.88 -290.98,-108.79 -419.31,91.8l-535.8 825.74c-179.78,254.83 -362.14,558.34 -543.44,830.77l-535.54 825.61c-113.91,184.81 -9.26,202.93 229.03,358.06 106.42,69.28 768.54,524.63 833.75,522.23 121.37,-4.47 343.18,-421.97 448.99,-579.32l135.9 -201.89z"/>
   <path class="fil2" d="M5002.83 4649.59c-330.76,44.5 -249.22,368.77 -249.48,696.86 -0.96,1226.26 -132.87,1155.52 727.72,1154.64 206.91,-0.21 774.87,27 940.3,-5.67 298.55,-58.98 228.13,-405.99 228.05,-704.52 -0.06,-188.74 24.81,-796.63 -7.58,-938.04 -62.87,-274.39 -432.74,-209.84 -716.31,-209.52 -256.62,0.3 -689.63,-25.1 -922.69,6.26z"/>
   <path class="fil3" d="M2397.75 7270.93l2361.11 1.14c243.28,0.18 210.83,-42.56 210.34,-272.83 -0.28,-131.61 3.99,-89.66 -48.79,-182.84 -692.52,-16.61 -1385.51,-7.26 -2078.21,-8.23 -700.65,-0.98 -661.87,-77.09 -656.11,331.04 2.04,144.58 82.42,131.89 211.67,131.72z"/>
   <path class="fil4" d="M536.32 11430.74l259.99 0.7 -2.81 -122.07c48.85,31.67 216.11,257.5 556.44,114.44 168.83,-70.97 273.06,-251.81 284.03,-493.58 18,-396.65 -215.37,-654.45 -552.87,-608.53 -150.15,20.43 -185.56,72.15 -265.77,137.61l1.5 -517.23 -278.76 1.76 -1.74 1486.91z"/>
   <path class="fil4" d="M6090.36 11431.66l267.19 -0.67 -0.2 -1047.98c50.17,58.11 110.79,183.63 158.86,261.44l473.37 786.98 327 -0.07 -0.43 -1471.42 -273.68 2.96 -5.34 1053.15c-12.86,-16.83 4.57,6.35 -18.42,-25.52 -7.09,-9.83 -17.03,-24.99 -22.57,-34.06 -106.92,-174.85 -521.59,-925 -586.81,-995.07l-314.2 0.98 -4.77 1469.28z"/>
   <path class="fil5" d="M4047.68 5978.95l-70.02 -4.42c39.22,-97.5 -24.14,-51.19 69.9,-81.79 -343.69,11.87 -630.98,54.99 -997.04,22.26 -536.2,-47.95 -1187.31,-222.44 -1646.95,-493.5 -271.5,-160.11 -403.7,-248.19 -634.49,-433.51l-210.4 -178.6c-32.13,-31.89 -27.13,-38.23 -66.31,-71.08 -242.18,-203.03 -442.69,-448.93 -681.57,-652.95 -271.64,-232.02 -443.04,-378.03 -784.34,-562.8 -181.99,-98.52 -561.43,-278.7 -752.07,-309.83 44.43,22.64 52.36,15.9 63.58,46.42l-6.65 56.68c-3.43,36.17 -35.43,-25.68 2.89,14.95 1.42,1.5 172.84,73.48 191.15,81.36 238.18,102.47 480.54,252.7 688.94,396.35 61.64,42.49 106.94,79.48 159.62,118.09l363.05 317.28c35.9,46.43 25.02,34.85 67.3,70.86 102.17,87.02 184.7,181.61 277.83,277.88 127.52,131.8 168.86,156.95 280.92,261.58 32.86,30.69 32.56,43.84 65.76,72.15l190.14 158.11c1004.31,796.51 2113.13,1114.98 3428.77,894.52z"/>
   <path class="fil4" d="M3124.59 10940.97l-282.4 0.67c-43.58,70.37 -129.75,352.61 -455.06,248.17 -352.46,-113.16 -344.54,-829.19 -10.25,-974.84 169.35,-73.78 412.41,-8.32 458.68,244.25l292.59 -1.7c-31.73,-170 -78.3,-302.1 -228.43,-405.29 -368.66,-253.4 -1064.63,-133.81 -1078.94,641.43 -19,1029.27 1246.04,954.51 1303.8,247.31z"/>
   <path class="fil5" d="M-1201.17 2818.68c-0.9,74.13 17.16,47.98 -41.89,53.44 32.83,21.66 616.46,203.16 1038.98,466.87 96.09,59.97 409.96,277.33 509.26,364.89l327.67 296.48c71.24,63.11 331.59,296.36 381.83,368.66 36.69,52.79 300.39,292.35 318.9,305.5 32.67,23.21 45.16,31.08 69.93,55.98 185.33,186.34 671.25,489.62 892.62,608.23 449.55,240.87 1047.23,391.27 1621.34,379.72l-84.07 -17.72c1.04,-35.78 11.22,-52.03 -0.24,-67.69 14.32,-0.5 37.95,0.04 51.17,-2.7l37.01 -12.21c3.32,-1.22 8.26,-3.23 11.98,-5.58 -566.1,-13.83 -1143.33,-197.21 -1590.4,-422.26 -221.71,-111.61 -626.48,-390.84 -811.26,-562.35 -30.04,-27.88 -25.29,-33.15 -60.76,-62.68 -49.28,-41.02 -85.94,-73.39 -135.19,-115.57 -96.41,-82.57 -63.33,-79.77 -124.81,-138.35 -42.72,-40.7 -83.43,-90.02 -124.33,-125.96 -65.75,-57.77 -24.3,-5.07 -132.83,-117.03 -238.93,-246.45 -231.52,-228.77 -450.85,-425.44 -142.91,-128.14 -196.2,-161.95 -362.96,-276.41 -183.35,-125.85 -413.46,-251.28 -652.9,-346.71 -203.05,-80.93 -558.71,-222.75 -770.79,-243.34l82.59 42.23z"/>
   <polygon class="fil4" points="7630.83,11431.57 8601.73,11430.69 8599.88,11186.54 7919.87,11182.71 7920.54,10806.74 8512.07,10807.69 8510.96,10566.1 7919.69,10567.05 7920.16,10209.37 8583.72,10209.42 8581.71,9960.78 7636.3,9962.59 "/>
   <path class="fil6" d="M-723.03 2411.76c-33.63,25.39 -39.26,4.64 -84.19,10.48 175.41,25.57 546.81,169.15 733.74,243.67 228.36,91.02 459.59,202.44 658.85,328 47.65,30.02 101.16,61.37 145.4,90.47l617.39 479.28c16.7,15.61 16.35,17.83 26.24,29.32l153.22 164.95c18.13,21.45 38.98,49.59 57.64,67.78 64.04,62.44 16.83,-13.04 114.28,121.68l116.52 133.89c31.38,37.07 31.81,22.58 65.01,58.52 37.02,40.07 64.52,95.19 108.25,128.91l131.28 118.86c22.01,21.56 35.7,33.32 56.7,54.57 30.12,30.49 30.06,41.49 54.82,69.87l203.04 172.77c314.54,245.37 404.5,329.67 841.82,519.51 204.28,88.68 542.9,191.91 773.52,205.23l-2.98 -4.91c-0.04,-0.31 -1,-3.15 -1,-3.59l5.57 -24.68c26.24,-45.84 -15.14,-25.59 50.32,-35.89 -575.06,-69.65 -1100.02,-412.76 -1495.01,-717.45 -202.61,-156.29 -268.54,-258.57 -452.41,-421.92l-348.52 -401.24c-85.61,-72.35 -162.52,-217.21 -432,-431.14 -45.12,-35.82 -29.73,-33.03 -60.43,-63.89 -23.71,-23.84 -45.94,-32.13 -71.78,-54.44 -3.05,-2.63 -11.08,-10.7 -14.14,-13.32 -2.16,-1.85 -5.17,-4.63 -7.37,-6.44 -2.23,-1.83 -5.44,-4.38 -7.73,-6.16l-63.07 -48.31c-286.52,-236.31 -822.96,-512.98 -1175.98,-629.49 -201.61,-66.54 -589.01,-192.95 -781.31,-207.75 51.73,62.98 -15.35,28.67 84.28,72.87z"/>
   <path class="fil4" d="M3312.25 10209.89l691.35 -0.56c-130.3,174.59 -260.2,377.56 -387.71,563.98l-292.47 429.76c-42.19,61.85 -25.97,143.35 -28.04,228.55l1107.98 -0.34 -1.37 -239.22 -734.57 0.43c133.4,-181.83 418.42,-639.17 579.47,-872.81 91.52,-132.78 135.42,-142.19 112.63,-351.64l-1040.85 -5.44 -6.42 247.3z"/>
   <path class="fil0" d="M5338.47 2533.91c-254.48,45.81 -468.89,292.57 -419.42,600.44 40.56,252.37 299.1,475.2 611.82,411.15 242.37,-49.65 467.79,-290.17 412.54,-594.58 -45.15,-248.78 -297.94,-472.27 -604.94,-417.01z"/>
   <polygon class="fil4" points="8765.52,10202.42 9201.67,10209.97 9201.5,11431.47 9490.47,11431.22 9488.83,10214.52 9913.23,10209.12 9911.08,9962.32 8768.58,9963 "/>
   <path class="fil1" d="M5350.61 568.68l558.24 378.93c85.92,58.93 515.48,354.22 586.12,360.71 50.07,-47.33 112.97,-159.23 150.24,-215.94 122.88,-186.96 -60.42,-244.09 -254.45,-379.01l-666.51 -444.49c-118.43,-73.48 -163.38,-41.71 -230.36,63.3 -41.26,64.7 -115.86,166.36 -143.28,236.5z"/>
   <polygon class="fil4" points="-1169.63,11429.05 -211.42,11431.37 -211.88,11172.26 -874.22,11173.8 -877.75,9960.72 -1164.81,9963.17 "/>
   <path class="fil6" d="M279.45 2162.42c17.28,12.38 589.48,219.5 766.39,316.14 174.39,95.26 513.28,296.29 661.06,435.11l273.06 267.44c33.83,34.78 34.75,19.65 67.08,56.36l435.11 524.67c34.43,42.06 100.93,103.88 138.63,139.31 50.91,47.84 92.96,83.28 144.32,132.37 13.81,-31.98 19.49,-33.28 67.17,-66.38 40.76,-28.3 -12.52,10.91 17.14,-9.87 -80.43,-57.05 -406.87,-486.46 -508.24,-622.96l-185.12 -232.62c-46.16,-44.89 -162.88,-135.95 -226.55,-218.44l-238.39 -193.26c-37.48,-28.58 -50.09,-30.57 -84.58,-54.83 -34.14,-24.01 -41.04,-33.08 -82.2,-56.31 -136.87,-77.27 -347.23,-196.06 -484.63,-250.8 -217.7,-86.72 -640.16,-262.5 -863.34,-286.06 26.54,16.76 32.55,14.12 59.06,23.63 47.2,16.94 32.56,-6.32 45.56,34.15 31.72,98.76 -68.74,5.29 -1.56,62.36z"/>
   <path class="fil3" d="M3053.72 4358.88c60.99,59.1 582.89,396.24 710.59,483.01 46.56,31.63 113.74,83.87 187.37,31.94 38.8,-27.36 174.81,-248.74 184.13,-305.15l-425.69 -285.32c-87.96,-55.39 -373.84,-253.79 -444.88,-277.25 -42.33,120.17 -164.29,222.7 -211.51,352.77z"/>
   <polygon class="fil4" points="4620.25,11430.11 4918.06,11431.46 4916.38,9961.46 4626.22,9962.96 "/>
   <polygon class="fil4" points="-11.14,11431.97 273.02,11430.95 271.06,10342.19 -12.69,10339.64 "/>
   <path class="fil0" d="M988.31 10569.04c-173.87,67 -191.08,243.48 -169.04,427.58 19.71,164.61 168.23,298.18 353.89,222.02 278.89,-114.41 215.26,-803.79 -184.84,-649.6z"/>
   <path class="fil0" d="M5074.1 5902.02l97.22 7.13 6.4 -411.5 235.75 346.64c42.52,71.3 53.69,64.26 150.63,64.54l0.02 -577.88 -107.22 1.66 2.37 388.79c-3.18,-2.28 -7.29,-10 -8.51,-7.58l-126.66 -182.57c-45.11,-72.33 -82.39,-139.46 -134.68,-199.85l-116.94 -0.75 1.63 571.35z"/>
   <polygon class="fil4" points="5145.98,11431.35 5872.27,11431.35 5871.28,11267.94 5145.83,11269.54 "/>
   <path class="fil0" d="M5676.5 5554.79l0.05 353.26 312.4 0.9c-3.67,-101.65 40.34,-90.39 -207.61,-88.59l1.3 -157.13 183.84 1.6 -2.44 -90.27 -183.87 1.88 5.67 -156.46 194.11 2.34 0.43 -90.97 -303.93 0.27 0.06 223.19z"/>
   <path class="fil0" d="M6027.17 5421.73l143.95 -2.62 -1.4 485.95 97.7 3.17 8.49 -485.87 107.4 -4.35c32.41,-8.33 19.69,-3.57 37.61,-16l-1.17 -55.55c-15.04,-8.04 15.13,-2.83 -36.24,-11.86l-360.13 -4.53 3.79 91.66z"/>
   <path class="fil4" d="M85.36 9941.42c-56.15,13.52 -73.58,17.14 -99.51,64.01 -66.95,121.04 35.9,261.28 193.67,221.17 177.41,-45.11 130.74,-339.32 -94.17,-285.18z"/>
  </g>
</svg>
